<?xml version="1.0" standalone="no"?><!DOCTYPE svg PUBLIC "-//W3C//DTD SVG 1.1//EN" "http://www.w3.org/Graphics/SVG/1.1/DTD/svg11.dtd"><svg t="1562754177834" class="icon" viewBox="0 0 1024 1024" version="1.1" xmlns="http://www.w3.org/2000/svg" p-id="2060" xmlns:xlink="http://www.w3.org/1999/xlink" width="128" height="128"><defs><style type="text/css"></style></defs><path d="M937.61006727 998.56121799H83.11028251c-17.66404998 0-35.32810133-8.83202498-46.36679418-22.08095656-11.04047828-15.45559806-15.45559806-33.11964803-11.0404769-50.78369801C69.86313775 700.48081071 253.12721605 532.67054503 473.92784761 515.00649506c8.83202498-2.20666787 15.45559806-2.20666787 26.49607493-2.20666787v22.08095654c-8.83202498 0-15.45559806 0-24.28762302 2.20666652-211.97039201 15.45559806-388.61089722 176.64050524-430.56257024 393.02601838-2.2084533 11.04047828 0 24.28762303 8.83202497 33.11964802 6.62357307 8.83202498 17.66404998 13.24714477 28.70274282 13.24714478h854.49978478c11.04047828 0 22.07917113-4.41511978 28.70452825-13.24714478 6.6253585-8.83202498 11.04047828-19.87250326 8.83202499-33.11964802-26.49607633-141.31240393-112.60787569-262.75230595-234.04777633-331.20184073-13.24893019-8.83202498-28.70452825-15.45559806-41.95345983-22.08095656l8.83202498-19.87071784c15.45559806 6.62357307 30.91119612 15.45559806 44.16012771 22.07917113 128.06347373 72.86465456 216.38372635 198.72146178 245.08825459 346.65743879 4.41690521 17.66404998 0 35.32810133-13.24714475 50.78369801-11.03690742 13.24893019-28.70274283 22.08095518-46.36679419 22.08095656zM507.04928107 534.87899833h-4.41690522v-22.08095657h6.62535851l-2.20845329 22.08095657z" fill="#00a8ec" p-id="2061"></path><path d="M515.88130605 534.87899833c-139.10395201 0-253.92028095-114.81632897-253.9202796-253.92028096s114.81632897-253.92028095 253.9202796-253.9202796S769.80158702 141.85476535 769.80158702 280.95871737s-114.81632897 253.92028095-253.92028097 253.92028096z m0-485.76139083c-128.06347373 0-231.84110983 103.77763612-231.84110983 231.84110987s103.77585069 231.84110983 231.84110983 231.84110982 231.84110983-103.77585069 231.84110984-231.84110982S643.94656519 49.11760754 515.88130605 49.11760754z" fill="#00a8ec" p-id="2062"></path></svg>